<mxfile host="65bd71144e">
    <diagram name="Seite-1" id="F4xT598CSBR7X-PaUnEJ">
        <mxGraphModel dx="1224" dy="1308" grid="1" gridSize="10" guides="1" tooltips="1" connect="1" arrows="1" fold="1" page="1" pageScale="1" pageWidth="583" pageHeight="827" math="0" shadow="0">
            <root>
                <mxCell id="0"/>
                <mxCell id="1" parent="0"/>
            </root>
        </mxGraphModel>
    </diagram>
</mxfile>